<svg xmlns="http://www.w3.org/2000/svg" xmlns:xlink="http://www.w3.org/1999/xlink" viewBox="0 0 2560 592.93"><defs><style>.cls-1,.cls-2{opacity:0.9;}.cls-1{fill:url(#linear-gradient);}.cls-2{fill:url(#linear-gradient-2);}.cls-3,.cls-4{opacity:0.5;}.cls-3{fill:url(#linear-gradient-3);}.cls-4{fill:url(#linear-gradient-4);}.cls-5{opacity:0.25;fill:url(#linear-gradient-5);}</style><linearGradient id="linear-gradient" x1="1280.15" y1="582.89" x2="1277.57" y2="318.4" gradientUnits="userSpaceOnUse"><stop offset="0.09" stop-color="#ed4758"/><stop offset="0.99" stop-color="#fcbd01"/></linearGradient><linearGradient id="linear-gradient-2" x1="-11079.51" y1="571.29" x2="-11078.3" y2="0.39" gradientTransform="matrix(-1, 0, 0, 1, -9799.03, 0)" gradientUnits="userSpaceOnUse"><stop offset="0.08" stop-color="#ed4758"/><stop offset="1" stop-color="#796eff"/></linearGradient><linearGradient id="linear-gradient-3" x1="1278.22" y1="581.79" x2="1287.07" y2="-7.17" gradientUnits="userSpaceOnUse"><stop offset="0.08" stop-color="#ed4758"/><stop offset="1" stop-color="#5a50c7"/></linearGradient><linearGradient id="linear-gradient-4" x1="1277.16" y1="541.86" x2="1241.72" y2="216.79" gradientUnits="userSpaceOnUse"><stop offset="0.08" stop-color="#ed4758"/><stop offset="0.85" stop-color="#fcbd01"/></linearGradient><linearGradient id="linear-gradient-5" x1="-11166.68" y1="345.9" x2="-11417.02" y2="-291.09" xlink:href="#linear-gradient-2"/></defs><title>home-hero</title><g id="Gradients"><path class="cls-1" d="M0,333.55c211.07-83.37,580.6-77.33,817-.23,558,182,1041.5,283.61,1743,209.61v50H0V333.55Z"/><path class="cls-2" d="M2560,99.5c-197.5-82.57-546.38-147.8-868,36.82-385,221-609.5,516.61-1692,408.61v48H2560V99.5Z"/></g><g id="Backdrop"><path class="cls-3" d="M1692,136.32C1517,236.76,1375.19,352.62,1170.9,439,1054.44,408.15,937.46,372.61,817,333.32c-236.4-77.1-605.93-83.14-817,.23V592.93H2560V99.5C2362.5,16.93,2013.62-48.29,1692,136.32Z"/><path class="cls-4" d="M0,333.55c211.07-83.37,580.6-77.33,817-.23,558,182,1041.5,283.61,1743,209.61v50H0Z"/><path class="cls-5" d="M2560,99.5c-197.5-82.57-546.38-147.8-868,36.82-385,221-609.5,516.61-1692,408.61v48H2560V99.5Z"/></g></svg>
